<svg width="48" height="48" clip-rule="evenodd" fill-rule="evenodd" viewBox="0 0 21 21" xmlns="http://www.w3.org/2000/svg">
	<path d="m0 0h21v21h-21z" fill="none"/>
	<path d="m10.5 1.3124c5.07328 0 9.1876 4.11432 9.1876 9.1876s-4.11432 9.1876-9.1876 9.1876-9.1876-4.11432-9.1876-9.1876 4.11432-9.1876 9.1876-9.1876zm-2.95213 13.1257v-7.87628c0-.54211.4422-.9843.9843-.9843.54211 0 .9843.44367.9843.9843v7.87628c0 .54063-.4422.9843-.9843.9843-.54211 0-.9843-.4422-.9843-.9843zm3.93566 0v-7.87628c0-.54211.4422-.9843.9843-.9843.54211 0 .9843.44367.9843.9843v7.87628c0 .54063-.4422.9843-.9843.9843-.54211 0-.9843-.4422-.9843-.9843z" fill="#fff"/>
</svg>